<svg width="35" height="35" viewBox="0 0 35 35" fill="none" xmlns="http://www.w3.org/2000/svg">
<g clip-path="url(#clip0_76_9)">
<path d="M27.47 23.93H14.92C13.7779 23.9219 12.6717 23.5299 11.7793 22.8171C10.8869 22.1043 10.2602 21.1121 9.99997 20L7.99997 11.87C7.81596 11.1151 7.80653 10.3282 7.97239 9.56909C8.13825 8.81 8.47503 8.09873 8.95711 7.48937C9.4392 6.88002 10.0539 6.38862 10.7545 6.05256C11.455 5.71649 12.223 5.54461 13 5.54999H29.5C30.2769 5.54461 31.0449 5.71649 31.7455 6.05256C32.446 6.38862 33.0607 6.88002 33.5428 7.48937C34.0249 8.09873 34.3617 8.81 34.5275 9.56909C34.6934 10.3282 34.684 11.1151 34.5 11.87L32.5 20.02C32.2299 21.1459 31.5848 22.1464 30.6706 22.857C29.7565 23.5676 28.6277 23.946 27.47 23.93ZM12.94 8.04999C12.5447 8.05119 12.1548 8.14182 11.7996 8.31508C11.4443 8.48833 11.1328 8.73973 10.8885 9.05044C10.6441 9.36115 10.4733 9.72311 10.3887 10.1092C10.3041 10.4953 10.3079 10.8956 10.4 11.28L12.4 19.43C12.5354 20.0011 12.8602 20.5096 13.3213 20.8728C13.7825 21.2359 14.353 21.4323 14.94 21.43H27.47C28.0569 21.4323 28.6274 21.2359 29.0886 20.8728C29.5498 20.5096 29.8745 20.0011 30.01 19.43L32.01 11.28C32.104 10.8954 32.1093 10.4945 32.0255 10.1076C31.9418 9.72063 31.771 9.35783 31.5263 9.04663C31.2816 8.73542 30.9693 8.48397 30.613 8.3113C30.2567 8.13863 29.8659 8.04927 29.47 8.04999H12.94Z" fill="#F8A605"/>
<path d="M9.45994 14C9.17436 13.9966 8.89855 13.8955 8.6784 13.7136C8.45825 13.5317 8.30704 13.2798 8.24994 13L6.45994 5.22997C6.29465 4.52216 5.89403 3.89139 5.32362 3.44088C4.75321 2.99037 4.04679 2.74678 3.31994 2.74997H1.68994C1.35842 2.74997 1.04048 2.61828 0.806058 2.38386C0.571637 2.14944 0.439941 1.83149 0.439941 1.49997C0.439941 1.16845 0.571637 0.850511 0.806058 0.61609C1.04048 0.38167 1.35842 0.249974 1.68994 0.249974H3.31994C4.61174 0.245461 5.8669 0.679117 6.8804 1.48011C7.8939 2.2811 8.60584 3.40209 8.89994 4.65997L10.6799 12.43C10.7185 12.5896 10.7249 12.7552 10.6989 12.9174C10.6729 13.0795 10.615 13.2348 10.5284 13.3743C10.4419 13.5139 10.3286 13.6349 10.1949 13.7302C10.0613 13.8256 9.91003 13.8935 9.74994 13.93C9.65598 13.9634 9.55878 13.9868 9.45994 14ZM15.1099 34.75C14.3188 34.75 13.5455 34.5154 12.8877 34.0759C12.2299 33.6363 11.7172 33.0116 11.4144 32.2807C11.1117 31.5498 11.0325 30.7455 11.1868 29.9696C11.3411 29.1937 11.7221 28.481 12.2815 27.9215C12.8409 27.3621 13.5537 26.9812 14.3296 26.8268C15.1055 26.6725 15.9098 26.7517 16.6407 27.0545C17.3716 27.3572 17.9963 27.8699 18.4358 28.5277C18.8753 29.1855 19.1099 29.9588 19.1099 30.75C19.1099 31.8108 18.6885 32.8283 17.9384 33.5784C17.1882 34.3285 16.1708 34.75 15.1099 34.75ZM15.1099 29.21C14.8093 29.21 14.5154 29.2991 14.2655 29.4661C14.0155 29.6332 13.8207 29.8706 13.7056 30.1483C13.5906 30.426 13.5605 30.7317 13.6191 31.0265C13.6778 31.3214 13.8226 31.5922 14.0351 31.8048C14.2477 32.0174 14.5186 32.1621 14.8134 32.2208C15.1083 32.2794 15.4139 32.2493 15.6916 32.1343C15.9694 32.0192 16.2068 31.8244 16.3738 31.5744C16.5408 31.3245 16.6299 31.0306 16.6299 30.73C16.6299 30.3268 16.4698 29.9402 16.1847 29.6552C15.8997 29.3701 15.5131 29.21 15.1099 29.21ZM28.9299 34.75C28.1388 34.75 27.3655 34.5154 26.7077 34.0759C26.0499 33.6363 25.5372 33.0116 25.2344 32.2807C24.9317 31.5498 24.8525 30.7455 25.0068 29.9696C25.1611 29.1937 25.5421 28.481 26.1015 27.9215C26.6609 27.3621 27.3737 26.9812 28.1496 26.8268C28.9255 26.6725 29.7298 26.7517 30.4607 27.0545C31.1916 27.3572 31.8163 27.8699 32.2558 28.5277C32.6953 29.1855 32.9299 29.9588 32.9299 30.75C32.9299 31.8108 32.5085 32.8283 31.7584 33.5784C31.0082 34.3285 29.9908 34.75 28.9299 34.75ZM28.9299 29.21C28.6297 29.2119 28.3369 29.3028 28.0882 29.471C27.8396 29.6392 27.6463 29.8773 27.5328 30.1552C27.4193 30.4331 27.3906 30.7384 27.4504 31.0326C27.5102 31.3268 27.6557 31.5967 27.8687 31.8083C28.0816 32.0198 28.3525 32.1636 28.6471 32.2215C28.9416 32.2793 29.2467 32.2486 29.5239 32.1333C29.8011 32.018 30.0379 31.8231 30.2045 31.5734C30.371 31.3236 30.4599 31.0302 30.4599 30.73C30.4599 30.5295 30.4203 30.331 30.3433 30.146C30.2663 29.9609 30.1534 29.7929 30.0112 29.6516C29.869 29.5103 29.7003 29.3986 29.5147 29.3228C29.3291 29.247 29.1304 29.2087 28.9299 29.21Z" fill="#F8A605"/>
<path d="M28.93 29.21H12.27C11.2383 29.21 10.2489 28.8002 9.51936 28.0706C8.78984 27.3411 8.38 26.3517 8.38 25.32C8.38 24.2883 8.78984 23.2989 9.51936 22.5693C10.2489 21.8398 11.2383 21.43 12.27 21.43H14.92C15.2515 21.43 15.5695 21.5617 15.8039 21.7961C16.0383 22.0305 16.17 22.3485 16.17 22.68C16.17 23.0115 16.0383 23.3295 15.8039 23.5639C15.5695 23.7983 15.2515 23.93 14.92 23.93H12.27C11.9014 23.93 11.5478 24.0764 11.2871 24.3371C11.0265 24.5978 10.88 24.9513 10.88 25.32C10.88 25.6886 11.0265 26.0422 11.2871 26.3029C11.5478 26.5635 11.9014 26.71 12.27 26.71H28.93C29.2615 26.71 29.5795 26.8417 29.8139 27.0761C30.0483 27.3105 30.18 27.6285 30.18 27.96C30.18 28.2915 30.0483 28.6095 29.8139 28.8439C29.5795 29.0783 29.2615 29.21 28.93 29.21Z" fill="#F8A605"/>
</g>
<defs>
<clipPath id="clip0_76_9">
<rect width="35" height="35" fill="white"/>
</clipPath>
</defs>
</svg>
